<?xml version="1.0" encoding="UTF-8" standalone="no"?>
<svg
   xmlns:dc="http://purl.org/dc/elements/1.1/"
   xmlns:cc="http://creativecommons.org/ns#"
   xmlns:rdf="http://www.w3.org/1999/02/22-rdf-syntax-ns#"
   xmlns:svg="http://www.w3.org/2000/svg"
   xmlns="http://www.w3.org/2000/svg"
   xmlns:sodipodi="http://sodipodi.sourceforge.net/DTD/sodipodi-0.dtd"
   xmlns:inkscape="http://www.inkscape.org/namespaces/inkscape"
   inkscape:version="1.0 (4035a4fb49, 2020-05-01)"
   sodipodi:docname="paper.svg"
   id="svg75"
   version="1.1"
   viewBox="0 0 300 300"
   width="300"
   height="300">
  <metadata
     id="metadata79">
    <rdf:RDF>
      <cc:Work
         rdf:about="">
        <dc:format>image/svg+xml</dc:format>
        <dc:type
           rdf:resource="http://purl.org/dc/dcmitype/StillImage" />
        <dc:title>rock-paper-scissors-line-icons</dc:title>
      </cc:Work>
    </rdf:RDF>
  </metadata>
  <sodipodi:namedview
     inkscape:current-layer="svg75"
     inkscape:window-maximized="1"
     inkscape:window-y="-9"
     inkscape:window-x="-9"
     inkscape:cy="183.46939"
     inkscape:cx="91.635605"
     inkscape:zoom="1.6768532"
     showgrid="false"
     id="namedview77"
     inkscape:window-height="1001"
     inkscape:window-width="1920"
     inkscape:pageshadow="2"
     inkscape:pageopacity="0"
     guidetolerance="10"
     gridtolerance="10"
     objecttolerance="10"
     borderopacity="1"
     bordercolor="#666666"
     pagecolor="#ffffff"
     inkscape:document-rotation="0"
     fit-margin-top="0"
     fit-margin-left="0"
     fit-margin-right="0"
     fit-margin-bottom="0" />
  <defs
     id="defs4">
    <style
       id="style2">.cls-1{isolation:isolate;}.cls-2{fill:#cfdfff;}.cls-3{opacity:0.3;mix-blend-mode:multiply;}.cls-4{fill:#fff;}.cls-5{fill:#ffe84a;}.cls-5,.cls-6,.cls-7,.cls-8{stroke:#231f20;stroke-width:9.33px;}.cls-5,.cls-7,.cls-8{stroke-miterlimit:10;}.cls-6{fill:none;stroke-linecap:round;stroke-linejoin:round;}.cls-7{fill:#00e1d4;}.cls-8{fill:#f1baf5;}</style>
  </defs>
  <title
     id="title6">rock-paper-scissors-line-icons</title>
  <g
     transform="translate(59.946477,24.008453)"
     id="g843">
    <path
       class="cls-4"
       d="m 160.71582,141.60727 -14,13.15 V 41.667274 c 0,-9.72 -7.24,-18.72 -17.77,-18.72 a 17.76,17.76 0 0 0 -17.71,17.77 v -16.05 c 0,-10.21 -7.59,-19.9999998 -18.999995,-19.9999998 a 18.94,18.94 0 0 0 -19,18.9999998 v -1.13 a 17.5,17.5 0 0 0 -17.73,-17.8699998 17.76,17.76 0 0 0 -17.77,17.7699998 v 30 a 15.58,15.58 0 0 0 -15.58,-15.57 c -9.34,0 -15.5700001,7.65 -15.5700001,16.2 V 180.87727 c 0,36.42 29.3400001,66.44 65.7800001,66.44 a 103.28,103.28 0 0 0 76.659995,-34.08 l 53,-57.52 a 9.76,9.76 0 0 0 -0.29,-13.54 v 0 a 29.53,29.53 0 0 0 -41.02,-0.57 z"
       id="path36"
       style="isolation:isolate;stroke-width:9.33165;stroke-miterlimit:4;stroke-dasharray:none" />
    <line
       class="cls-6"
       x1="35.755844"
       y1="52.417294"
       x2="35.755844"
       y2="113.37732"
       id="line38"
       style="isolation:isolate;stroke-width:9.33165;stroke-miterlimit:4;stroke-dasharray:none" />
    <line
       class="cls-6"
       x1="71.295822"
       y1="23.637266"
       x2="71.295822"
       y2="113.37732"
       id="line40"
       style="isolation:isolate;stroke-width:9.33165;stroke-miterlimit:4;stroke-dasharray:none" />
    <line
       class="cls-6"
       x1="109.20586"
       y1="40.717281"
       x2="109.20586"
       y2="113.37732"
       id="line42"
       style="isolation:isolate;stroke-width:9.33165;stroke-miterlimit:4;stroke-dasharray:none" />
    <path
       class="cls-6"
       d="m 144.75582,154.75727 h -36 a 42.61,42.61 0 0 0 -32.339995,14.82"
       id="path44"
       style="isolation:isolate;stroke-width:9.33165;stroke-miterlimit:4;stroke-dasharray:none" />
    <path
       class="cls-6"
       d="m 158.74582,141.60727 -14,13.15 V 41.667274 c 0,-9.72 -7.24,-18.72 -17.78,-18.72 a 17.77,17.77 0 0 0 -17.73,17.77 v -16.05 c 0,-10.21 -7.58,-19.9999998 -18.999995,-19.9999998 a 19,19 0 0 0 -19,18.9999998 v -1.13 a 17.49,17.49 0 0 0 -17.71,-17.8699998 17.77,17.77 0 0 0 -17.77,17.7699998 v 30 a 15.57,15.57 0 0 0 -15.52,-15.59 c -9.34,0 -15.5700001,7.65 -15.5700001,16.2 V 180.87727 c 0,36.42 29.3400001,66.44 65.7800001,66.44 35.599995,0 57.079995,-12.39 76.659995,-34.08 l 53,-57.52 a 9.75,9.75 0 0 0 -0.3,-13.54 v 0 a 29.51,29.51 0 0 0 -41.06,-0.57 z"
       id="path46"
       style="isolation:isolate;stroke-width:9.33165;stroke-miterlimit:4;stroke-dasharray:none" />
  </g>
</svg>
