<?xml version="1.0" encoding="UTF-8" standalone="no"?>
<svg
   xmlns:dc="http://purl.org/dc/elements/1.1/"
   xmlns:cc="http://creativecommons.org/ns#"
   xmlns:rdf="http://www.w3.org/1999/02/22-rdf-syntax-ns#"
   xmlns:svg="http://www.w3.org/2000/svg"
   xmlns="http://www.w3.org/2000/svg"
   xmlns:sodipodi="http://sodipodi.sourceforge.net/DTD/sodipodi-0.dtd"
   xmlns:inkscape="http://www.inkscape.org/namespaces/inkscape"
   sodipodi:docname="rock.svg"
   inkscape:version="1.0 (4035a4fb49, 2020-05-01)"
   id="svg8"
   version="1.1"
   viewBox="0 0 79.374999 79.374999"
   height="300"
   width="300">
  <defs
     id="defs2">
    <style
       id="style2">.cls-1{isolation:isolate;}.cls-2{fill:#cfdfff;}.cls-3{opacity:0.3;mix-blend-mode:multiply;}.cls-4{fill:#fff;}.cls-5{fill:#ffe84a;}.cls-5,.cls-6,.cls-7,.cls-8{stroke:#231f20;stroke-width:9.33px;}.cls-5,.cls-7,.cls-8{stroke-miterlimit:10;}.cls-6{fill:none;stroke-linecap:round;stroke-linejoin:round;}.cls-7{fill:#00e1d4;}.cls-8{fill:#f1baf5;}</style>
  </defs>
  <sodipodi:namedview
     fit-margin-bottom="0"
     fit-margin-right="0"
     fit-margin-left="0"
     fit-margin-top="0"
     inkscape:window-maximized="1"
     inkscape:window-y="-9"
     inkscape:window-x="-9"
     inkscape:window-height="1001"
     inkscape:window-width="1920"
     showgrid="false"
     inkscape:document-rotation="0"
     inkscape:current-layer="g845"
     inkscape:document-units="mm"
     inkscape:cy="145.31285"
     inkscape:cx="99.515828"
     inkscape:zoom="1.979899"
     inkscape:pageshadow="2"
     inkscape:pageopacity="0.0"
     borderopacity="1.0"
     bordercolor="#666666"
     pagecolor="#ffffff"
     id="base"
     units="px" />
  <metadata
     id="metadata5">
    <rdf:RDF>
      <cc:Work
         rdf:about="">
        <dc:format>image/svg+xml</dc:format>
        <dc:type
           rdf:resource="http://purl.org/dc/dcmitype/StillImage" />
        <dc:title />
      </cc:Work>
    </rdf:RDF>
  </metadata>
  <g
     transform="translate(-79.503104,-118.41849)"
     id="layer1"
     inkscape:groupmode="layer"
     inkscape:label="Layer 1">
    <g
       id="g845">
      <g
         id="g854"
         transform="translate(13.355946,13.865895)">
        <path
           id="path16"
           d="m 128.26206,141.07583 v -15.46489 a 5.349875,5.349875 0 0 0 -10.69975,0 v 0.48154 a 6.3103124,6.3103124 0 1 0 -12.61798,0 v -0.0688 a 6.2415208,6.2415208 0 1 0 -12.480393,0 v 7.57502 a 5.8631666,5.8631666 0 0 0 -11.726333,0 v 18.83833 a 21.468291,21.468291 0 0 0 21.468296,21.46829 h 2.96597 a 25.759833,25.759833 0 0 0 25.75983,-25.75718 10.660062,10.660062 0 0 0 -2.66964,-7.07231 z"
           class="cls-4"
           style="isolation:isolate;stroke-width:2.469;stroke-miterlimit:4;stroke-dasharray:none" />
        <path
           id="path18"
           d="m 86.600771,147.13479 v 0 a 5.8631666,5.8631666 0 0 1 -5.863167,-5.86316 v -7.67292 a 5.8631666,5.8631666 0 0 1 5.863167,-5.86317 v 0 a 5.8631666,5.8631666 0 0 1 5.863166,5.86317 v 7.67292 a 5.8631666,5.8631666 0 0 1 -5.863166,5.86316 z"
           class="cls-6"
           style="isolation:isolate;stroke-width:2.469;stroke-miterlimit:4;stroke-dasharray:none" />
        <path
           id="path20"
           d="M 130.9317,148.14815 A 10.712979,10.712979 0 0 0 120.21872,137.43517 H 94.554146 a 2.0981458,2.0981458 0 0 0 -2.0955,2.09814 v 1.32292 a 9.2948124,9.2948124 0 0 0 9.294814,9.29481 h 12.73174"
           class="cls-6"
           style="isolation:isolate;stroke-width:2.469;stroke-miterlimit:4;stroke-dasharray:none" />
        <line
           id="line22"
           y2="137.43517"
           x2="104.94434"
           y1="126.09248"
           x1="104.94434"
           class="cls-6"
           style="isolation:isolate;stroke-width:2.469;stroke-miterlimit:4;stroke-dasharray:none" />
        <path
           id="path24"
           d="m 128.26206,141.07583 v -15.46489 a 5.349875,5.349875 0 0 0 -10.69975,0 v 0.48154 a 6.3103124,6.3103124 0 1 0 -12.61798,0 v -0.0688 a 6.2415208,6.2415208 0 1 0 -12.480393,0 v 7.57502 a 5.8631666,5.8631666 0 0 0 -11.726333,0 v 18.83833 a 21.468291,21.468291 0 0 0 21.468296,21.46829 h 2.96597 a 25.759833,25.759833 0 0 0 25.75983,-25.75718 10.660062,10.660062 0 0 0 -2.66964,-7.07231 z"
           class="cls-6"
           style="isolation:isolate;stroke-width:2.469;stroke-miterlimit:4;stroke-dasharray:none" />
        <line
           id="line26"
           y2="137.43517"
           x2="117.56231"
           y1="126.09248"
           x1="117.56231"
           class="cls-6"
           style="isolation:isolate;stroke-width:2.469;stroke-miterlimit:4;stroke-dasharray:none" />
        <path
           id="path28"
           d="m 114.34498,150.14045 v 0 a 10.31875,10.31875 0 0 0 -10.31875,10.33198 v 3.05329"
           class="cls-6"
           style="isolation:isolate;stroke-width:2.469;stroke-miterlimit:4;stroke-dasharray:none" />
      </g>
    </g>
  </g>
</svg>
