<?xml version="1.0" encoding="UTF-8" standalone="no"?>
<svg
   xmlns:dc="http://purl.org/dc/elements/1.1/"
   xmlns:cc="http://creativecommons.org/ns#"
   xmlns:rdf="http://www.w3.org/1999/02/22-rdf-syntax-ns#"
   xmlns:svg="http://www.w3.org/2000/svg"
   xmlns="http://www.w3.org/2000/svg"
   xmlns:sodipodi="http://sodipodi.sourceforge.net/DTD/sodipodi-0.dtd"
   xmlns:inkscape="http://www.inkscape.org/namespaces/inkscape"
   sodipodi:docname="scissors.svg"
   inkscape:version="1.0 (4035a4fb49, 2020-05-01)"
   id="svg8"
   version="1.1"
   viewBox="2.7755576e-17 0 79.375001 79.375001"
   height="300"
   width="300">
  <defs
     id="defs2">
    <style
       id="style2">.cls-1{isolation:isolate;}.cls-2{fill:#cfdfff;}.cls-3{opacity:0.3;mix-blend-mode:multiply;}.cls-4{fill:#fff;}.cls-5{fill:#ffe84a;}.cls-5,.cls-6,.cls-7,.cls-8{stroke:#231f20;stroke-width:9.33px;}.cls-5,.cls-7,.cls-8{stroke-miterlimit:10;}.cls-6{fill:none;stroke-linecap:round;stroke-linejoin:round;}.cls-7{fill:#00e1d4;}.cls-8{fill:#f1baf5;}</style>
  </defs>
  <sodipodi:namedview
     viewbox-x="0"
     inkscape:window-maximized="1"
     inkscape:window-y="-9"
     inkscape:window-x="-9"
     inkscape:window-height="1001"
     inkscape:window-width="1920"
     showgrid="false"
     inkscape:document-rotation="0"
     inkscape:current-layer="layer1"
     inkscape:document-units="mm"
     inkscape:cy="135.59077"
     inkscape:cx="88.121542"
     inkscape:zoom="1.979899"
     inkscape:pageshadow="2"
     inkscape:pageopacity="0.0"
     borderopacity="1.0"
     bordercolor="#666666"
     pagecolor="#ffffff"
     id="base"
     units="px"
     fit-margin-top="0"
     fit-margin-left="0"
     fit-margin-right="0"
     fit-margin-bottom="0" />
  <metadata
     id="metadata5">
    <rdf:RDF>
      <cc:Work
         rdf:about="">
        <dc:format>image/svg+xml</dc:format>
        <dc:type
           rdf:resource="http://purl.org/dc/dcmitype/StillImage" />
        <dc:title></dc:title>
      </cc:Work>
    </rdf:RDF>
  </metadata>
  <g
     id="layer1"
     inkscape:groupmode="layer"
     inkscape:label="Layer 1"
     transform="translate(-82.517842,-113.77114)">
    <g
       transform="translate(-0.84273571,-0.2390914)"
       id="g849">
      <path
         style="isolation:isolate;stroke-width:2.469;stroke-miterlimit:4;stroke-dasharray:none"
         class="cls-4"
         d="m 141.68134,117.0567 a 5.2149374,5.2149374 0 0 0 -5.89227,4.44236 l -4.15925,28.53267 -4.14602,-28.44007 a 5.2175833,5.2175833 0 0 0 -10.31875,1.44198 l 3.02154,21.57677 a 5.5562499,5.5562499 0 0 0 -9.15988,4.20952 v 5.00857 a 5.5562499,5.5562499 0 0 0 -11.096622,0 v 15.0442 c 0,11.0834 8.363482,20.75921 19.423062,21.47359 11.39296,0.73818 22.1906,-7.86077 22.1906,-21.34659 0,-17.8091 0,-11.85862 4.5773,-46.0375 a 5.2149374,5.2149374 0 0 0 -4.43971,-5.9055 z"
         id="path54" />
      <path
         style="isolation:isolate;stroke-width:2.469;stroke-miterlimit:4;stroke-dasharray:none"
         class="cls-6"
         d="m 127.45469,168.99177 v 0 a 9.2604166,9.2604166 0 0 0 -9.26042,9.26041 v 2.74109"
         id="path56" />
      <path
         style="isolation:isolate;stroke-width:2.469;stroke-miterlimit:4;stroke-dasharray:none"
         class="cls-6"
         d="m 141.68134,117.0567 a 5.2149374,5.2149374 0 0 0 -5.89227,4.44236 l -4.15925,28.53267 -4.14602,-28.44007 a 5.2175833,5.2175833 0 0 0 -10.31875,1.44198 l 3.02154,21.57677 a 5.5562499,5.5562499 0 0 0 -9.15988,4.20952 v 5.00857 a 5.5562499,5.5562499 0 0 0 -11.096622,0 v 15.0442 c 0,11.0834 8.363482,20.75921 19.423062,21.47359 11.39296,0.73818 22.1906,-7.86077 22.1906,-21.34659 0,-17.8091 0,-11.85862 4.5773,-46.0375 a 5.2149374,5.2149374 0 0 0 -4.43971,-5.9055 z"
         id="path58" />
      <path
         style="isolation:isolate;stroke-width:2.469;stroke-miterlimit:4;stroke-dasharray:none"
         class="cls-4"
         d="m 105.4784,148.27225 v 0 a 5.5562499,5.5562499 0 0 0 -5.556252,5.55625 v 6.77597 a 5.5562499,5.5562499 0 0 0 5.556252,5.55625 v 0 a 5.5562499,5.5562499 0 0 0 5.55625,-5.55625 v -6.78391 a 5.5562499,5.5562499 0 0 0 -5.55625,-5.54831 z"
         id="path60" />
      <path
         style="isolation:isolate;stroke-width:2.469;stroke-miterlimit:4;stroke-dasharray:none"
         class="cls-4"
         d="m 116.57502,143.26368 v 0 a 5.5562499,5.5562499 0 0 0 -5.55625,5.55625 v 11.78454 a 5.5562499,5.5562499 0 0 0 5.55625,5.55625 v 0 a 5.5562499,5.5562499 0 0 0 5.55625,-5.55625 V 148.812 a 5.5562499,5.5562499 0 0 0 -5.55625,-5.54832 z"
         id="path62" />
      <path
         style="isolation:isolate;stroke-width:2.469;stroke-miterlimit:4;stroke-dasharray:none"
         class="cls-6"
         d="m 105.4784,148.27225 v 0 a 5.5562499,5.5562499 0 0 0 -5.556252,5.55625 v 6.77597 a 5.5562499,5.5562499 0 0 0 5.556252,5.55625 v 0 a 5.5562499,5.5562499 0 0 0 5.55625,-5.55625 v -6.78391 a 5.5562499,5.5562499 0 0 0 -5.55625,-5.54831 z"
         id="path64" />
      <path
         style="isolation:isolate;stroke-width:2.469;stroke-miterlimit:4;stroke-dasharray:none"
         class="cls-6"
         d="m 116.57502,143.26368 v 0 a 5.5562499,5.5562499 0 0 0 -5.55625,5.55625 v 11.78454 a 5.5562499,5.5562499 0 0 0 5.55625,5.55625 v 0 a 5.5562499,5.5562499 0 0 0 5.55625,-5.55625 V 148.812 a 5.5562499,5.5562499 0 0 0 -5.55625,-5.54832 z"
         id="path66" />
      <path
         style="isolation:isolate;stroke-width:2.469;stroke-miterlimit:4;stroke-dasharray:none"
         class="cls-4"
         d="m 141.54375,168.99177 v 0 A 10.82675,10.82675 0 0 0 130.717,158.16502 h -16.85925 a 2.8680833,2.8680833 0 0 0 -2.87073,2.86808 v 0 a 7.9586666,7.9586666 0 0 0 7.95867,7.95867 h 8.509"
         id="path68" />
      <path
         style="isolation:isolate;stroke-width:2.469;stroke-miterlimit:4;stroke-dasharray:none"
         class="cls-6"
         d="m 141.54375,168.99177 v 0 A 10.82675,10.82675 0 0 0 130.717,158.16502 h -16.85925 a 2.8680833,2.8680833 0 0 0 -2.87073,2.86808 v 0 a 7.9586666,7.9586666 0 0 0 7.95867,7.95867 h 8.509"
         id="path70" />
    </g>
  </g>
</svg>
